#!OML:ASF E:\Style4\Style4.ASF
:FULLY-SPECIFIED
:DEGREES
1365
root -0.045131 17.9014 -1.67008 -0.154215 -2.42707 1.07195
lowerback 3.52842 4.37453 -0.417696
upperback 0.44759 5.78687 -1.76964
thorax -1.36857 2.89004 -1.84407
lowerneck -2.55227 -7.08956 -6.70053
upperneck 12.1421 -10.2137 9.0084
head 4.85971 -4.86089 3.31228
rclavicle 3.23025e-014 -7.55382e-015
rhumerus 57.3122 32.3327 -23.47
rradius 80.1696
rwrist -38.2811
rhand -14.6328 28.6993
rfingers 7.12502
rthumb 11.5189 -0.964212
lclavicle 3.23025e-014 -7.55382e-015
lhumerus -38.7719 -46.0881 106.673
lradius 83.5497
lwrist 23.3385
lhand -13.2998 27.6799
lfingers 7.12502
lthumb 12.8042 57.2672
rfemur -9.09632 2.57166 17.4269
rtibia 27.0609
rfoot -16.437 -14.6746
rtoes -14.29
lfemur -6.86771 -3.11528 -20.3029
ltibia 25.7748
lfoot -18.8414 10.9046
ltoes -15.1137
1366
root -0.056106 17.8997 -1.66613 -0.236017 -2.38064 1.07208
lowerback 3.52961 4.37381 -0.434042
upperback 0.503719 5.78628 -1.75896
thorax -1.31433 2.89025 -1.8213
lowerneck -2.51786 -7.13462 -6.7322
upperneck 12.0131 -10.2646 9.00695
head 4.8203 -4.89057 3.31565
rclavicle -8.96767e-014 7.95139e-016
rhumerus 59.4032 33.7055 -20.6537
rradius 80.1355
rwrist -38.2348
rhand -14.3182 28.5614
rfingers 7.12502
rthumb 11.8223 -1.08489
lclavicle -8.96767e-014 7.95139e-016
lhumerus -38.6649 -46.0347 106.671
lradius 83.5695
lwrist 23.5109
lhand -13.4393 27.7653
lfingers 7.12502
lthumb 12.6697 57.361
rfemur -9.02095 2.5536 17.4662
rtibia 27.1425
rfoot -16.568 -14.6626
rtoes -14.0823
lfemur -6.74473 -3.12353 -20.2684
ltibia 25.7492
lfoot -18.8441 10.8339
ltoes -14.8195
1367
root -0.0649784 17.8968 -1.66253 -0.32901 -2.37001 1.13693
lowerback 3.57116 4.4489 -0.453665
upperback 0.554035 5.88491 -1.82204
thorax -1.27849 2.93995 -1.87985
lowerneck -2.56815 -7.25209 -6.75173
upperneck 11.9825 -10.4335 9.12089
head 4.84049 -4.96735 3.34
rclavicle 4.86525e-014 -5.56597e-015
rhumerus 61.3308 34.8663 -17.9145
rradius 80.1242
rwrist -38.0508
rhand -13.979 28.4997
rfingers 7.12502
rthumb 12.1493 -1.12749
lclavicle 4.86525e-014 -5.56597e-015
lhumerus -38.7016 -46.2406 106.732
lradius 83.6164
lwrist 23.6342
lhand -13.5551 27.7518
lfingers 7.12502
lthumb 12.558 57.3544
rfemur -8.95057 2.55202 17.4321
rtibia 27.2371
rfoot -16.6633 -14.6758
rtoes -14.0205
lfemur -6.61293 -3.12254 -20.3127
ltibia 25.7232
lfoot -18.9094 10.7665
ltoes -14.2517
1368
root -0.0707567 17.8932 -1.66274 -0.457842 -2.14606 1.16135
lowerback 3.72863 4.50205 -0.338954
upperback 0.59592 5.95712 -1.93489
thorax -1.29752 2.97574 -2.07229
lowerneck -2.61985 -7.40919 -6.65493
upperneck 11.9538 -10.6626 9.22295
head 4.86002 -5.06902 3.33769
rclavicle -1.23023e-013 2.8625e-014
rhumerus 63.1226 35.8824 -15.3634
rradius 80.0664
rwrist -37.7345
rhand -13.7929 28.526
rfingers 7.12502
rthumb 12.3288 -1.09052
lclavicle -1.23023e-013 2.8625e-014
lhumerus -38.7867 -46.5781 106.763
lradius 83.7516
lwrist 23.6545
lhand -13.428 27.8868
lfingers 7.12502
lthumb 12.6806 57.4818
rfemur -8.84735 2.36143 17.4145
rtibia 27.3801
rfoot -16.7877 -14.6936
rtoes -14.0094
lfemur -6.49194 -3.34479 -20.35
ltibia 25.6978
lfoot -18.7446 10.8779
ltoes -14.899
1369
root -0.0834415 17.8922 -1.65802 -0.448292 -2.20879 1.13868
lowerback 3.65778 4.70687 -0.234503
upperback 0.626838 6.23444 -2.07434
thorax -1.1907 3.11514 -2.27472
lowerneck -2.62232 -7.63066 -6.41796
upperneck 11.8135 -10.9756 9.27675
head 4.83391 -5.21182 3.29534
rclavicle -3.32964e-014 1.19271e-015
rhumerus 64.5264 36.8217 -13.2457
rradius 80.0156
rwrist -37.3677
rhand -13.5404 28.4975
rfingers 7.12502
rthumb 12.5722 -1.10426
lclavicle -3.32964e-014 1.19271e-015
lhumerus -38.8 -47.1726 106.784
lradius 83.8122
lwrist 23.6911
lhand -13.2366 28.0268
lfingers 7.12502
lthumb 12.8651 57.6103
rfemur -8.88426 2.38474 17.5079
rtibia 27.5355
rfoot -16.8946 -14.6049
rtoes -13.4284
lfemur -6.46401 -3.09487 -20.2388
ltibia 25.6823
lfoot -18.6942 10.7298
ltoes -15.4721
1370
root -0.0944861 17.8914 -1.65617 -0.489203 -2.21539 1.20503
lowerback 3.66695 4.84438 -0.271353
upperback 0.656983 6.41558 -2.17268
thorax -1.15097 3.20636 -2.36108
lowerneck -2.60337 -7.79607 -6.29565
upperneck 11.6773 -11.2113 9.37536
head 4.80744 -5.3203 3.29139
rclavicle 1.0312e-014 -1.94809e-014
rhumerus 65.9989 37.8284 -11.0672
rradius 80.1362
rwrist -37.1178
rhand -13.2244 28.2508
rfingers 7.12502
rthumb 12.8769 -1.33197
lclavicle 1.0312e-014 -1.94809e-014
lhumerus -38.7931 -47.5938 106.856
lradius 83.8209
lwrist 23.8628
lhand -13.337 28.1958
lfingers 7.12502
lthumb 12.7683 57.7853
rfemur -8.83316 2.36337 17.4896
rtibia 27.6496
rfoot -17.0039 -14.4369
rtoes -12.4981
lfemur -6.4311 -3.04945 -20.2611
ltibia 25.7147
lfoot -18.813 10.5756
ltoes -14.7398
1371
root -0.10365 17.8886 -1.65629 -0.525259 -2.18789 1.17451
lowerback 3.70166 4.96157 -0.187914
upperback 0.667399 6.5741 -2.24404
thorax -1.13584 3.28579 -2.48823
lowerneck -2.58402 -7.94314 -6.1982
upperneck 11.5654 -11.425 9.49766
head 4.78924 -5.41761 3.29999
rclavicle -3.86636e-014 0
rhumerus 67.3481 38.8003 -9.06052
rradius 80.2907
rwrist -36.9201
rhand -12.7321 28.1345
rfingers 7.12502
rthumb 13.3514 -1.41778
lclavicle -3.86636e-014 0
lhumerus -38.8399 -47.9458 106.953
lradius 83.8634
lwrist 23.9536
lhand -13.4812 28.2392
lfingers 7.12502
lthumb 12.6293 57.8374
rfemur -8.8288 2.33866 17.5588
rtibia 27.7115
rfoot -17.0408 -14.4509
rtoes -12.3435
lfemur -6.43028 -3.0232 -20.1847
ltibia 25.7882
lfoot -18.8998 10.4522
ltoes -14.34
1372
root -0.111949 17.884 -1.65729 -0.524405 -2.10407 1.1425
lowerback 3.72655 5.06039 -0.129534
upperback 0.656851 6.70712 -2.29661
thorax -1.14214 3.35223 -2.58188
lowerneck -2.52912 -8.0959 -6.18603
upperneck 11.4238 -11.6444 9.65777
head 4.7637 -5.52129 3.3349
rclavicle -5.23052e-014 1.51076e-014
rhumerus 68.5553 39.7765 -7.25859
rradius 80.4432
rwrist -36.7406
rhand -12.2699 28.1246
rfingers 7.12502
rthumb 13.7969 -1.39789
lclavicle -5.23052e-014 1.51076e-014
lhumerus -38.9312 -48.2878 107.098
lradius 83.8698
lwrist 23.9219
lhand -13.6354 28.1395
lfingers 7.12502
lthumb 12.4806 57.7468
rfemur -8.91058 2.33133 17.6285
rtibia 27.7487
rfoot -16.9064 -14.7708
rtoes -13.5279
lfemur -6.49383 -3.08847 -20.1159
ltibia 25.8739
lfoot -18.9151 10.4073
ltoes -14.4166
1373
root -0.120563 17.8819 -1.65653 -0.494905 -2.0169 1.04415
lowerback 3.75367 5.13801 -0.0459096
upperback 0.607795 6.81263 -2.31146
thorax -1.19165 3.40417 -2.65248
lowerneck -2.47635 -8.22303 -6.16384
upperneck 11.3161 -11.8273 9.77992
head 4.74325 -5.60793 3.35884
rclavicle -1.59028e-014 2.38542e-015
rhumerus 69.8204 40.7628 -5.47791
rradius 80.5631
rwrist -36.6109
rhand -12.2347 28.3658
rfingers 7.12502
rthumb 13.8309 -1.1544
lclavicle -1.59028e-014 2.38542e-015
lhumerus -39.0864 -48.5013 107.26
lradius 83.9353
lwrist 23.9868
lhand -13.7729 28.0775
lfingers 7.12502
lthumb 12.3481 57.6929
rfemur -8.94972 2.3233 17.7689
rtibia 27.732
rfoot -16.9388 -14.892
rtoes -13.7681
lfemur -6.59312 -3.1445 -19.9725
ltibia 25.974
lfoot -18.9036 10.4022
ltoes -14.687
1374
root -0.127706 17.8803 -1.65269 -0.474945 -1.95415 1.0742
lowerback 3.70812 5.229 -0.0515564
upperback 0.61931 6.93407 -2.36907
thorax -1.1426 3.46559 -2.70726
lowerneck -2.56527 -8.34378 -6.13633
upperneck 11.2821 -11.9985 9.86733
head 4.76607 -5.68424 3.36479
rclavicle -4.12975e-014 -1.98785e-015
rhumerus 70.9153 41.6279 -3.89382
rradius 80.723
rwrist -36.5287
rhand -12.2324 28.5995
rfingers 7.12502
rthumb 13.8331 -0.920497
lclavicle -4.12975e-014 -1.98785e-015
lhumerus -38.9979 -48.7136 107.266
lradius 83.891
lwrist 23.8712
lhand -13.423 27.9461
lfingers 7.12502
lthumb 12.6854 57.5409
rfemur -8.94389 2.28403 17.7517
rtibia 27.7185
rfoot -17.0321 -14.8723
rtoes -13.6329
lfemur -6.65688 -3.19447 -19.989
ltibia 26.0607
lfoot -18.922 10.4353
ltoes -15.0075
1375
root -0.134458 17.8793 -1.64944 -0.490746 -1.88913 1.10569
lowerback 3.63676 5.32641 -0.0458753
upperback 0.699927 7.06652 -2.40909
thorax -1.00827 3.53368 -2.74319
lowerneck -2.65006 -8.48115 -6.17002
upperneck 11.1535 -12.1853 9.99505
head 4.76697 -5.77106 3.39251
rclavicle 9.84481e-014 -4.37326e-015
rhumerus 71.7907 42.3815 -2.58693
rradius 80.841
rwrist -36.3845
rhand -12.0088 28.8852
rfingers 7.12502
rthumb 14.0486 -0.619963
lclavicle 9.84481e-014 -4.37326e-015
lhumerus -38.8127 -48.9281 107.296
lradius 83.8327
lwrist 23.7155
lhand -13.1575 27.8564
lfingers 7.12502
lthumb 12.9414 57.435
rfemur -8.91976 2.24856 17.7351
rtibia 27.7415
rfoot -17.101 -14.88
rtoes -13.6107
lfemur -6.6708 -3.21126 -20.0053
ltibia 26.1326
lfoot -18.9421 10.4092
ltoes -15.0807
1376
root -0.141536 17.8775 -1.6484 -0.506726 -1.78716 1.10553
lowerback 3.62702 5.42804 -0.0112704
upperback 0.73707 7.20397 -2.45534
thorax -0.948103 3.60339 -2.81033
lowerneck -2.58732 -8.63983 -6.13113
upperneck 10.9271 -12.3977 10.09
head 4.70912 -5.87643 3.40518
rclavicle -1.18028e-014 -1.59028e-015
rhumerus 72.4143 43.2271 -1.54535
rradius 80.9885
rwrist -36.0574
rhand -11.7901 28.8546
rfingers 7.12502
rthumb 14.2593 -0.635812
lclavicle -1.18028e-014 -1.59028e-015
lhumerus -38.7753 -49.2199 107.395
lradius 83.7818
lwrist 23.6523
lhand -13.0782 27.6034
lfingers 7.12502
lthumb 13.0178 57.1772
rfemur -8.90341 2.20215 17.7677
rtibia 27.7915
rfoot -17.0827 -14.9704
rtoes -13.8328
lfemur -6.68336 -3.27955 -19.9804
ltibia 26.18
lfoot -18.9912 10.3182
ltoes -14.7495
